<svg width="13" height="13" viewBox="0 0 13 13" fill="none" xmlns="http://www.w3.org/2000/svg">
<path d="M5.83887 10.706L3.62012 8.48721L4.52637 7.58096L5.83887 8.89346L8.46387 6.26846L9.37012 7.17471L5.83887 10.706ZM2.12012 12.9872C1.77637 12.9872 1.48199 12.8649 1.23699 12.6203C0.992409 12.3753 0.870117 12.081 0.870117 11.7372V2.98721C0.870117 2.64346 0.992409 2.3493 1.23699 2.10471C1.48199 1.85971 1.77637 1.73721 2.12012 1.73721H2.74512V0.487213H3.99512V1.73721H8.99512V0.487213H10.2451V1.73721H10.8701C11.2139 1.73721 11.5082 1.85971 11.7532 2.10471C11.9978 2.3493 12.1201 2.64346 12.1201 2.98721V11.7372C12.1201 12.081 11.9978 12.3753 11.7532 12.6203C11.5082 12.8649 11.2139 12.9872 10.8701 12.9872H2.12012ZM2.12012 11.7372H10.8701V5.48721H2.12012V11.7372ZM2.12012 4.23721H10.8701V2.98721H2.12012V4.23721Z" fill="white"/>
</svg>
