<svg width="20" height="28" viewBox="0 0 20 28" fill="none" xmlns="http://www.w3.org/2000/svg">
<path fill-rule="evenodd" clip-rule="evenodd" d="M16.4716 10.7491C16.4716 14.482 13.6708 17.5082 10.2157 17.5082C6.76064 17.5082 3.95975 14.482 3.95975 10.7491C3.95975 7.01624 6.76064 3.99012 10.2157 3.99012C13.6708 3.99012 16.4716 7.01624 16.4716 10.7491ZM10.1695 16.0437H10.1576L10.1636 16.0437L10.1695 16.0437ZM9.55498 16.0028C9.57812 15.8203 9.5901 15.6336 9.5901 15.4437C9.5901 13.323 8.09629 11.6038 6.25359 11.6038C5.95532 11.6038 5.66619 11.6489 5.39106 11.7334C5.76143 13.9719 7.44803 15.7177 9.55498 16.0028ZM5.32211 10.5238C5.45755 7.76178 7.57336 5.56723 10.1636 5.56723C12.7538 5.56723 14.8696 7.76178 15.005 10.5238H5.32211ZM14.9408 11.7047C14.586 13.9206 12.9425 15.6595 10.8745 15.9878C10.8526 15.8101 10.8413 15.6284 10.8413 15.4437C10.8413 13.323 12.3351 11.6038 14.1778 11.6038C14.4403 11.6038 14.6957 11.6387 14.9408 11.7047ZM10.737 11.763C10.737 12.0741 10.5036 12.3262 10.2157 12.3262C9.92775 12.3262 9.69434 12.0741 9.69434 11.763C9.69434 11.4519 9.92775 11.1997 10.2157 11.1997C10.5036 11.1997 10.737 11.4519 10.737 11.763Z" fill="white"/>
<path d="M10 0.204163C12.8569 0.204163 15.2391 1.26307 17.1468 3.3809C18.9453 5.37676 19.8964 7.83283 20 10.7491H17.4949C17.3958 8.57816 16.6909 6.75833 15.3801 5.28965C13.9621 3.70173 12.1687 2.90777 10 2.90777C7.83127 2.90777 6.03792 3.70173 4.6199 5.28965C3.30911 6.75833 2.60417 8.57816 2.50505 10.7491H0C0.103591 7.83284 1.05466 5.37676 2.8532 3.3809C4.76084 1.26307 7.14313 0.204163 10 0.204163Z" fill="white"/>
<path d="M16.6914 14.8045C16.4068 15.4661 16.0477 16.153 15.6141 16.8651C14.3529 18.9379 12.4815 21.2022 10 23.6579C7.51847 21.2022 5.64669 18.9379 4.38466 16.8651C3.95135 16.153 3.59247 15.4661 3.30804 14.8045H0.608106C1.02247 16.0331 1.64528 17.3111 2.4766 18.6387C4.13486 21.2864 6.64266 24.1536 10 27.2402C13.3573 24.1536 15.8648 21.2864 17.5221 18.6387C18.3539 17.3111 18.977 16.0331 19.3916 14.8045H16.6914Z" fill="white"/>
</svg>
