<svg width="152" height="15" viewBox="0 0 152 15" fill="none" xmlns="http://www.w3.org/2000/svg">
<path d="M17.4 14.0622C17.4533 14.2222 17.48 14.3089 17.48 14.3222C17.48 14.5889 17.3533 14.7222 17.1 14.7222H13.78C13.4333 14.7222 13.1933 14.5889 13.06 14.3222L11.06 9.32219H10.6V14.1822C10.6 14.3289 10.5467 14.4555 10.44 14.5622C10.3333 14.6689 10.2067 14.7222 10.06 14.7222H7.42C7.27333 14.7222 7.14667 14.6689 7.04 14.5622C6.93333 14.4555 6.88 14.3289 6.88 14.1822V9.32219H6.42L4.42 14.3222C4.28667 14.5889 4.04667 14.7222 3.7 14.7222H0.38C0.126667 14.7222 0 14.5889 0 14.3222C0 14.3089 0.0266667 14.2222 0.08 14.0622L2.92 7.42219L0.42 1.38219C0.366667 1.22219 0.34 1.12885 0.34 1.10219C0.34 0.982186 0.373333 0.888853 0.44 0.822186C0.506667 0.755519 0.593333 0.722186 0.7 0.722186H4.06C4.32667 0.722186 4.51333 0.868853 4.62 1.16219L6.48 5.96219H6.88V1.26219C6.88 1.11552 6.93333 0.988853 7.04 0.882186C7.14667 0.77552 7.27333 0.722186 7.42 0.722186H10.06C10.2067 0.722186 10.3333 0.77552 10.44 0.882186C10.5467 0.988853 10.6 1.11552 10.6 1.26219V5.96219H11L12.86 1.16219C12.9667 0.868853 13.1533 0.722186 13.42 0.722186H16.78C16.8867 0.722186 16.9733 0.755519 17.04 0.822186C17.1067 0.888853 17.14 0.982186 17.14 1.10219C17.14 1.12885 17.1133 1.22219 17.06 1.38219L14.56 7.42219L17.4 14.0622Z" fill="white"/>
<path d="M22.8722 14.0422C22.6989 14.4955 22.3989 14.7222 21.9722 14.7222H18.1922C18.0722 14.7222 17.9655 14.6822 17.8722 14.6022C17.7922 14.5089 17.7522 14.4022 17.7522 14.2822L17.7722 14.1622L22.1322 1.38219C22.1855 1.20885 22.2855 1.05552 22.4322 0.922186C22.5789 0.788853 22.7789 0.722186 23.0322 0.722186H28.5922C28.8455 0.722186 29.0455 0.788853 29.1922 0.922186C29.3389 1.05552 29.4389 1.20885 29.4922 1.38219L33.8522 14.1622L33.8722 14.2822C33.8722 14.4022 33.8255 14.5089 33.7322 14.6022C33.6522 14.6822 33.5522 14.7222 33.4322 14.7222H29.6522C29.2255 14.7222 28.9255 14.4955 28.7522 14.0422L28.2522 12.6422H23.3722L22.8722 14.0422ZM25.8122 4.58219L24.3922 8.74219H27.2322L25.8122 4.58219Z" fill="white"/>
<path d="M51.0044 14.0222C51.0577 14.1022 51.0844 14.1889 51.0844 14.2822C51.0844 14.4022 51.0377 14.5089 50.9444 14.6022C50.8644 14.6822 50.7644 14.7222 50.6444 14.7222H45.4844C45.1777 14.7222 44.9377 14.6155 44.7644 14.4022L41.6844 9.94219H41.0844V14.1822C41.0844 14.3289 41.031 14.4555 40.9244 14.5622C40.8177 14.6689 40.691 14.7222 40.5444 14.7222H36.4244C36.2777 14.7222 36.151 14.6689 36.0444 14.5622C35.9377 14.4555 35.8844 14.3289 35.8844 14.1822V1.26219C35.8844 1.11552 35.9377 0.988853 36.0444 0.882186C36.151 0.77552 36.2777 0.722186 36.4244 0.722186H40.5444C40.691 0.722186 40.8177 0.77552 40.9244 0.882186C41.031 0.988853 41.0844 1.11552 41.0844 1.26219V5.38219H41.5244L44.4444 1.06219C44.6444 0.835519 44.891 0.722186 45.1844 0.722186H50.0044C50.1244 0.722186 50.2244 0.768853 50.3044 0.862186C50.3977 0.942186 50.4444 1.04219 50.4444 1.16219C50.4444 1.26885 50.411 1.36219 50.3444 1.44219L45.6044 7.22219L51.0044 14.0222Z" fill="white"/>
<path d="M52.5966 14.7222C52.4499 14.7222 52.3232 14.6689 52.2166 14.5622C52.1099 14.4555 52.0566 14.3289 52.0566 14.1822V1.26219C52.0566 1.11552 52.1099 0.988853 52.2166 0.882186C52.3232 0.77552 52.4499 0.722186 52.5966 0.722186H55.7966C55.9432 0.722186 56.0699 0.77552 56.1766 0.882186C56.2832 0.988853 56.3366 1.11552 56.3366 1.26219V10.4222H57.7566V1.26219C57.7566 1.11552 57.8099 0.988853 57.9166 0.882186C58.0232 0.77552 58.1499 0.722186 58.2966 0.722186H61.1366C61.2832 0.722186 61.4099 0.77552 61.5166 0.882186C61.6232 0.988853 61.6766 1.11552 61.6766 1.26219V10.4222H63.1166V1.26219C63.1166 1.11552 63.1699 0.988853 63.2766 0.882186C63.3832 0.77552 63.5099 0.722186 63.6566 0.722186H66.8766C67.0232 0.722186 67.1499 0.77552 67.2566 0.882186C67.3632 0.975519 67.4166 1.10219 67.4166 1.26219V14.1822C67.4166 14.3289 67.3632 14.4555 67.2566 14.5622C67.1499 14.6689 67.0232 14.7222 66.8766 14.7222H52.5966Z" fill="white"/>
<path d="M74.0688 5.18219C75.7221 5.18219 77.0221 5.60885 77.9688 6.46219C78.9154 7.31552 79.3888 8.46885 79.3888 9.92219C79.3888 10.8289 79.1754 11.6489 78.7488 12.3822C78.3354 13.1022 77.7288 13.6755 76.9287 14.1022C76.1287 14.5155 75.1821 14.7222 74.0888 14.7222H69.1087C68.9621 14.7222 68.8354 14.6689 68.7288 14.5622C68.6221 14.4555 68.5687 14.3289 68.5687 14.1822V1.26219C68.5687 1.11552 68.6221 0.988853 68.7288 0.882186C68.8354 0.77552 68.9621 0.722186 69.1087 0.722186H72.6288C72.7754 0.722186 72.9021 0.77552 73.0088 0.882186C73.1154 0.988853 73.1688 1.11552 73.1688 1.26219V5.18219H74.0688ZM81.0888 14.7222C80.9421 14.7222 80.8154 14.6689 80.7088 14.5622C80.6021 14.4555 80.5488 14.3289 80.5488 14.1822V1.26219C80.5488 1.11552 80.6021 0.988853 80.7088 0.882186C80.8154 0.77552 80.9421 0.722186 81.0888 0.722186H84.3688C84.5154 0.722186 84.6421 0.77552 84.7488 0.882186C84.8554 0.988853 84.9088 1.11552 84.9088 1.26219V14.1822C84.9088 14.3289 84.8554 14.4555 84.7488 14.5622C84.6421 14.6689 84.5154 14.7222 84.3688 14.7222H81.0888ZM74.0688 10.9822C74.4954 10.9822 74.8221 10.8822 75.0488 10.6822C75.2754 10.4822 75.3888 10.2089 75.3888 9.86219C75.3888 9.16885 74.9488 8.82219 74.0688 8.82219H73.1688V10.9822H74.0688Z" fill="white"/>
<path d="M119.353 14.0622C119.406 14.2222 119.433 14.3089 119.433 14.3222C119.433 14.5889 119.306 14.7222 119.053 14.7222H115.733C115.386 14.7222 115.146 14.5889 115.013 14.3222L113.013 9.32219H112.553V14.1822C112.553 14.3289 112.5 14.4555 112.393 14.5622C112.286 14.6689 112.16 14.7222 112.013 14.7222H109.373C109.226 14.7222 109.1 14.6689 108.993 14.5622C108.886 14.4555 108.833 14.3289 108.833 14.1822V9.32219H108.373L106.373 14.3222C106.24 14.5889 106 14.7222 105.653 14.7222H102.333C102.08 14.7222 101.953 14.5889 101.953 14.3222C101.953 14.3089 101.98 14.2222 102.033 14.0622L104.873 7.42219L102.373 1.38219C102.32 1.22219 102.293 1.12885 102.293 1.10219C102.293 0.982186 102.326 0.888853 102.393 0.822186C102.46 0.755519 102.546 0.722186 102.653 0.722186H106.013C106.28 0.722186 106.466 0.868853 106.573 1.16219L108.433 5.96219H108.833V1.26219C108.833 1.11552 108.886 0.988853 108.993 0.882186C109.1 0.77552 109.226 0.722186 109.373 0.722186H112.013C112.16 0.722186 112.286 0.77552 112.393 0.882186C112.5 0.988853 112.553 1.11552 112.553 1.26219V5.96219H112.953L114.813 1.16219C114.92 0.868853 115.106 0.722186 115.373 0.722186H118.733C118.84 0.722186 118.926 0.755519 118.993 0.822186C119.06 0.888853 119.093 0.982186 119.093 1.10219C119.093 1.12885 119.066 1.22219 119.013 1.38219L116.513 7.42219L119.353 14.0622Z" fill="white"/>
<path d="M135.145 8.94219C135.145 10.9822 134.465 12.4889 133.105 13.4622C131.759 14.4355 129.959 14.9222 127.705 14.9222C125.452 14.9222 123.645 14.4355 122.285 13.4622C120.939 12.4889 120.265 10.9689 120.265 8.90219V6.54219C120.265 5.18219 120.585 4.05552 121.225 3.16219C121.879 2.25552 122.765 1.58885 123.885 1.16219C125.005 0.73552 126.279 0.522186 127.705 0.522186C129.132 0.522186 130.399 0.73552 131.505 1.16219C132.625 1.58885 133.512 2.24885 134.165 3.14219C134.819 4.03552 135.145 5.15552 135.145 6.50219V8.94219ZM125.665 9.32219C125.665 9.86885 125.845 10.2889 126.205 10.5822C126.579 10.8755 127.079 11.0222 127.705 11.0222C128.332 11.0222 128.825 10.8755 129.185 10.5822C129.559 10.2755 129.745 9.84885 129.745 9.30219V6.14219C129.745 5.59552 129.559 5.17552 129.185 4.88219C128.825 4.57552 128.332 4.42219 127.705 4.42219C127.079 4.42219 126.579 4.56885 126.205 4.86219C125.845 5.15552 125.665 5.57552 125.665 6.12219V9.32219Z" fill="white"/>
<path d="M137.497 14.9222C137.351 14.9222 137.217 14.8689 137.097 14.7622C136.991 14.6555 136.938 14.5289 136.938 14.3822V11.1822C136.938 11.0355 136.991 10.9089 137.097 10.8022C137.204 10.6955 137.331 10.6422 137.477 10.6422C137.957 10.6422 138.324 10.0822 138.577 8.96219C138.831 7.84219 138.957 6.22219 138.957 4.10219V1.26219C138.957 1.11552 139.011 0.988853 139.117 0.882186C139.224 0.77552 139.351 0.722186 139.497 0.722186H150.857C151.004 0.722186 151.131 0.77552 151.237 0.882186C151.344 0.988853 151.397 1.11552 151.397 1.26219V14.1822C151.397 14.3289 151.344 14.4555 151.237 14.5622C151.131 14.6689 151.004 14.7222 150.857 14.7222H147.137C146.991 14.7222 146.864 14.6689 146.757 14.5622C146.651 14.4555 146.597 14.3289 146.597 14.1822V5.02219H143.557V6.04219C143.557 9.10885 143.044 11.3555 142.018 12.7822C140.991 14.2089 139.484 14.9222 137.497 14.9222Z" fill="white"/>
</svg>
